<svg 
    xmlns="http://www.w3.org/2000/svg" xmlns:xlink="http://www.w3.org/1999/xlink" xmlns:inkscape="http://www.inkscape.org/namespaces/inkscape" version="1.1" width="541.134" height="53.253" viewBox="0 0 541.134 53.253">
    <defs>
    <path id="font_0_3" d="M.1789856 .114868167C.13899231 .047973634 .099990848 .033981325 .055999757 .0309906 .04399109 .02999878 .034988405 .02999878 .034988405 .010986328 .034988405 .004989624 .039993287 0 .04798889 0 .07499695 0 .10598755 .0029907227 .13398743 .0029907227 .16699219 .0029907227 .20199585 0 .23399353 0 .23999024 0 .25299073 0 .25299073 .018997193 .25299073 .02999878 .24398804 .0309906 .23699951 .0309906 .21398926 .032989503 .18998719 .04096985 .18998719 .06593323 .18998719 .077926639 .19599915 .088897708 .20399475 .102890018L.27999879 .23068238H.5309906C.5329895 .2097168 .5469971 .07392883 .5469971 .063949588 .5469971 .033981325 .49499513 .0309906 .47499085 .0309906 .46099855 .0309906 .45098878 .0309906 .45098878 .010986328 .45098878 0 .46299745 0 .46499635 0 .5059967 0 .548996 .0029907227 .58999636 .0029907227 .61499026 .0029907227 .6779938 0 .7029877 0 .70899966 0 .72099307 0 .72099307 .019989014 .72099307 .0309906 .71099856 .0309906 .69799807 .0309906 .6359863 .0309906 .6359863 .037979127 .6329956 .06694031L.57199099 .691803C.56999209 .71180728 .56999209 .7158203 .5529938 .7158203 .5369873 .7158203 .5329895 .7088165 .5269928 .69880679L.1789856 .114868167M.29899598 .26168824 .49598695 .5917816 .5279999 .26168824H.29899598Z"/>
    <path id="font_1_4" d="M.68699648 .32714845C.70199587 .32714845 .72099307 .32714845 .72099307 .34713746 .72099307 .36714173 .70199587 .36714173 .6879883 .36714173H.08898926C.07499695 .36714173 .055999757 .36714173 .055999757 .34713746 .055999757 .32714845 .07499695 .32714845 .08999634 .32714845H.68699648M.6879883 .13284302C.70199587 .13284302 .72099307 .13284302 .72099307 .15284729 .72099307 .17285156 .70199587 .17285156 .68699648 .17285156H.08999634C.07499695 .17285156 .055999757 .17285156 .055999757 .15284729 .055999757 .13284302 .07499695 .13284302 .08898926 .13284302H.6879883Z"/>
    <path id="font_2_1" d="M.41600038-1.4889221C.41600038-1.441925 .41600038-1.3679199 .35299684-1.2869263 .31399537-1.2369232 .25698854-1.1909332 .18798828-1.1599274 .3829956-1.0659332 .41600038-.92193606 .41600038-.86494448V-.2889557C.41600038-.22695923 .41600038-.09895325 .6100006-.002960205 .6179962 .0010375977 .6179962 .003036499 .6179962 .018035889 .6179962 .039031984 .6179962 .040039064 .59599307 .040039064 .58200076 .040039064 .5799866 .040039064 .55400088 .028030396 .45498658-.020965577 .35699464-.09996033 .33599855-.22195435 .33299256-.24195862 .33299256-.2509613 .33299256-.3179474V-.77993777C.33299256-.8109436 .33299256-.86294558 .33198548-.8739319 .32299806-.9789429 .2619934-1.069931 .147995-1.1329346 .13198853-1.1419373 .1309967-1.1429291 .1309967-1.1589356 .1309967-1.1759338 .13198853-1.1769257 .1459961-1.1849365 .21299744-1.2219238 .30899049-1.29393 .32899476-1.41893 .33299256-1.441925 .33299256-1.443924 .33299256-1.4549255V-2.0489045C.33299256-2.1939088 .43299867-2.2888947 .5569916-2.3479005 .57899478-2.358902 .58099368-2.358902 .59599307-2.358902 .61698916-2.358902 .6179962-2.358902 .6179962-2.3368989 .6179962-2.3208924 .61698916-2.3199006 .60899356-2.3148957 .56799319-2.2949067 .43899537-2.2299042 .41799928-2.085907 .41600038-2.0718995 .41600038-2.060913 .41600038-2.0009003V-1.4889221Z"/>
    <path id="font_1_2" d="M.2939911 .64004519C.2939911 .66400149 .2939911 .6660156 .2709961 .6660156 .20899964 .60227969 .12098694 .60227969 .08898926 .60227969V.57128909C.10899353 .57128909 .16799927 .57128909 .21998596 .5972748V.07902527C.21998596 .042999269 .21699524 .0309906 .1269989 .0309906H.09498596V0C.12998963 .0029907227 .21699524 .0029907227 .25698854 .0029907227 .29699708 .0029907227 .38398744 .0029907227 .4189911 0V.0309906H.3869934C.29699708 .0309906 .2939911 .041992189 .2939911 .07902527V.64004519Z"/>
    <path id="font_0_4" d="M.08799744 .059265138C.084991458 .044265748 .07899475 .021255494 .07899475 .01625061 .07899475-.0017547608 .09298706-.0107421879 .10798645-.0107421879 .11999512-.0107421879 .13798523-.002746582 .14498902 .01725769 .1459961 .019256592 .1579895 .06626892 .1639862 .091278079L.18598938 .18130493C.19198609 .2033081 .19799805 .22531128 .20298767 .24832154 .20698548 .26531983 .21499634 .29434205 .21598816 .29833985 .23098755 .3293457 .28399659 .42037965 .3789978 .42037965 .42399598 .42037965 .43299867 .38336183 .43299867 .35035707 .43299867 .28833009 .38398744 .16029358 .36799623 .11727905 .35899354 .0942688 .35798646 .08227539 .35798646 .0712738 .35798646 .024261475 .3929901-.0107421879 .43998719-.0107421879 .5339966-.0107421879 .57099917 .13528443 .57099917 .14329529 .57099917 .1532898 .56199648 .1532898 .5589905 .1532898 .548996 .1532898 .548996 .15029907 .5439911 .13528443 .5239868 .06726074 .4909973 .011245728 .44198609 .011245728 .4249878 .011245728 .41799928 .021255494 .41799928 .044265748 .41799928 .0692749 .4269867 .09327698 .43598939 .11528015 .45498658 .16830445 .49699403 .27833558 .49699403 .3353424 .49699403 .40237428 .45399476 .4423828 .38198854 .4423828 .2919922 .4423828 .24299622 .37835694 .22599793 .35534669 .22099304 .41137696 .17999268 .4423828 .13398743 .4423828 .08799744 .4423828 .068984989 .4033661 .05899048 .38536073 .042999269 .35134889 .0289917 .29232789 .0289917 .28833009 .0289917 .27833558 .038986207 .27833558 .040985109 .27833558 .050994874 .27833558 .051986696 .2793274 .057998659 .30133058 .07499695 .37236024 .09498596 .42037965 .1309967 .42037965 .15098572 .42037965 .1619873 .4073639 .1619873 .37435914 .1619873 .35334779 .15899658 .3423462 .1459961 .29032899L.08799744 .059265138Z"/>
    <path id="font_1_3" d="M.19198609 .37765504C.19198609 .406662 .16799927 .43066407 .13899231 .43066407 .10998535 .43066407 .085998538 .406662 .085998538 .37765504 .085998538 .34866334 .10998535 .32466126 .13899231 .32466126 .16799927 .32466126 .19198609 .34866334 .19198609 .37765504M.19198609 .052993776C.19198609 .08198547 .16799927 .10598755 .13899231 .10598755 .10998535 .10598755 .085998538 .08198547 .085998538 .052993776 .085998538 .023986817 .10998535 0 .13899231 0 .16799927 0 .19198609 .023986817 .19198609 .052993776Z"/>
    <path id="font_3_1" d="M.5479889 .23046875C.5649872 .23046875 .58299258 .23046875 .58299258 .25045777 .58299258 .27046205 .5649872 .27046205 .5479889 .27046205H.12399292C.13598633 .40419007 .25099183 .5 .3919983 .5H.5479889C.5649872 .5 .58299258 .5 .58299258 .519989 .58299258 .5399933 .5649872 .5399933 .5479889 .5399933H.3899994C.21899414 .5399933 .08299255 .4101715 .08299255 .25045777 .08299255 .09017944 .21899414-.040008546 .3899994-.040008546H.5479889C.5649872-.040008546 .58299258-.040008546 .58299258-.020004273 .58299258 0 .5649872 0 .5479889 0H.3919983C.25099183 0 .13598633 .096191409 .12399292 .23046875H.5479889Z"/>
    <path id="font_4_1" d="M.11199951 .5946045V.10694885C.11199951 .053985597 .10398865 .035995485 .052993776 .034988405 .041992189 .034988405 .024993897 .033996583 .024993897 .017990113 .024993897 0 .040985109 0 .05899048 0H.21398926C.23199463 0 .24699402 0 .24699402 .017990113 .24699402 .033996583 .23098755 .034988405 .21699524 .034988405 .1619873 .035995485 .1539917 .05697632 .1539917 .108947757V.5666199L.58599856-.0035552979C.59498599-.015563965 .59999087-.018554688 .6069946-.018554688 .6239929-.018554688 .6239929-.0025634766 .6239929 .014419556V.57865908C.6239929 .6345825 .6329956 .6485596 .67900088 .64956668 .68499758 .64956668 .70199587 .6505585 .70199587 .66656497 .70199587 .6845703 .68699648 .6845703 .6689911 .6845703H.522995C.5049896 .6845703 .4889984 .6845703 .4889984 .66656497 .4889984 .64956668 .5069885 .64956668 .5179901 .64956668 .57398989 .6485596 .58200076 .6285858 .58200076 .5756531V.26307679L.27999879 .67056277C.269989 .6845703 .2669983 .6845703 .24398804 .6845703H.069992069C.051986696 .6845703 .036987306 .6845703 .036987306 .66656497 .036987306 .65156558 .051986696 .64956668 .057998659 .64956668 .084991458 .64656069 .10398865 .6305847 .11399841 .61860659 .11199951 .6105957 .11199951 .6085968 .11199951 .5946045M.58898928 .050979616 .1539917 .62557986C.14399719 .63757327 .14399719 .63957217 .1329956 .64956668H.2519989L.58898928 .19488526V.050979616Z"/>
    <path id="font_0_1" d="M.20298767 .0009918213C.20298767 .066986087 .17799378 .10598755 .13899231 .10598755 .10598755 .10598755 .085998538 .08099365 .085998538 .052993776 .085998538 .025985718 .10598755 0 .13899231 0 .15098572 0 .1639862 .0039978029 .17399597 .0129852299 .1769867 .01499939 .17799378 .015991211 .1789856 .015991211 .17999268 .015991211 .18099976 .01499939 .18099976 .0009918213 .18099976-.07316589 .1459961-.13328552 .11299133-.16635132 .101989749-.17736817 .101989749-.17936707 .101989749-.18237305 .101989749-.18936157 .10699463-.19335938 .11199951-.19335938 .12298584-.19335938 .20298767-.116256717 .20298767 .0009918213Z"/>
    <path id="font_0_2" d="M.6749878 .22798157C.6859894 .23298645 .69400027 .23799134 .69400027 .24998474 .69400027 .2619934 .6859894 .2669983 .6749878 .27198792L.12098694 .53305056C.10798645 .5400543 .10598755 .5400543 .102996829 .5400543 .09199524 .5400543 .08299255 .53105166 .08299255 .52005007 .08299255 .51104739 .08799744 .50505068 .101989749 .49804688L.6269989 .24998474 .101989749 .0019378662C.08799744-.005065918 .08299255-.011062622 .08299255-.020065308 .08299255-.031066895 .09199524-.04006958 .102996829-.04006958 .10598755-.04006958 .10798645-.04006958 .12098694-.033065797L.6749878 .22798157Z"/>
    <path id="font_1_1" d="M.45999146 .31976319C.45999146 .39982606 .45498658 .47988893 .41999818 .5539398 .37399293 .65000918 .2919922 .6660156 .25 .6660156 .18998719 .6660156 .116989139 .64001467 .07598877 .54693606 .04399109 .47789 .038986207 .39982606 .038986207 .31976319 .038986207 .24472046 .042999269 .15464783 .083999637 .07859802 .1269989-.0024719239 .19999695-.022460938 .24899292-.022460938 .30299378-.022460938 .3789978-.0014648438 .4229889 .09359741 .45498658 .16265869 .45999146 .2407074 .45999146 .31976319M.24899292-.00047302247C.20999146-.00047302247 .15098572 .024551392 .1329956 .12062073 .12199402 .18066406 .12199402 .2727356 .12199402 .3317871 .12199402 .39582826 .12199402 .46188355 .12998963 .5159149 .14898682 .63500979 .22399903 .64401248 .24899292 .64401248 .28199769 .64401248 .34799195 .6259918 .36698915 .52693179 .3769989 .47088624 .3769989 .39482118 .3769989 .3317871 .3769989 .25672914 .3769989 .18867493 .3659973 .12461853 .35099793 .029556275 .2939911-.00047302247 .24899292-.00047302247Z"/>
    <path id="font_2_2" d="M.41600038-1.4729157C.41600038-1.3549194 .47599793-1.2529297 .6100006-1.1809235 .61698916-1.1769257 .6179962-1.1759338 .6179962-1.1599274 .6179962-1.1429291 .61698916-1.1419373 .60598757-1.1359253 .42599488-1.0399323 .41600038-.89294436 .41600038-.8639374V-.2699585C.41600038-.12495422 .31599427-.029968262 .19198609 .029037476 .16999817 .040039064 .16799927 .040039064 .15299988 .040039064 .13198853 .040039064 .1309967 .039031984 .1309967 .018035889 .1309967 .003036499 .1309967 .0010375977 .13999939-.003967285 .18299866-.024963379 .31098939-.08996582 .33099366-.23295594 .33299256-.2469635 .33299256-.25794984 .33299256-.3179474V-.8299408C.33299256-.87693789 .33299256-.950943 .3959961-1.0319367 .43499757-1.0819397 .49198915-1.1279297 .5609894-1.1589356 .3659973-1.2529297 .33299256-1.3969269 .33299256-1.4539185V-2.0299073C.33299256-2.0819092 .33299256-2.1399079 .2749939-2.212906 .22999573-2.2689057 .18099976-2.2949067 .13798523-2.3159028 .1309967-2.3199006 .1309967-2.3238984 .1309967-2.3368989 .1309967-2.357895 .13198853-2.358902 .15299988-2.358902 .16699219-2.358902 .16899109-2.358902 .19499207-2.3468934 .2939911-2.2978974 .3919983-2.2189027 .41299439-2.0969086 .41600038-2.0769044 .41600038-2.0679017 .41600038-2.0009003V-1.4729157Z"/>
    </defs>
    <use data-text="A" xlink:href="#font_0_3" transform="matrix(9.9626,0,0,-9.9626,209.069,29.614998)"/>
    <use data-text="=" xlink:href="#font_1_4" transform="matrix(9.9626,0,0,-9.9626,219.308,29.614998)"/>
    <use data-text="&#xfffd;" xlink:href="#font_2_1" transform="matrix(9.9626,0,0,-9.9626,229.824,15.567997)"/>
    <use data-text="1" xlink:href="#font_1_2" transform="matrix(9.9626,0,0,-9.9626,238.991,22.874997)"/>
    <path transform="matrix(1,0,0,-1,238.491,27.123999)" stroke-width=".398" stroke-linecap="butt" stroke-miterlimit="10" stroke-linejoin="miter" fill="none" stroke="#000000" d="M0 0H5.98"/>
    <use data-text="n" xlink:href="#font_0_4" transform="matrix(9.9626,0,0,-9.9626,238.491,36.448999)"/>
    <use data-text=":" xlink:href="#font_1_3" transform="matrix(9.9626,0,0,-9.9626,248.43399,29.614998)"/>
    <use data-text="n" xlink:href="#font_0_4" transform="matrix(9.9626,0,0,-9.9626,257.289,29.614998)"/>
    <use data-text="&#x2208;" xlink:href="#font_3_1" transform="matrix(9.9626,0,0,-9.9626,266.036,29.614998)"/>
    <use data-text="N" xlink:href="#font_4_1" transform="matrix(9.9626,0,0,-9.9626,275.445,29.614998)"/>
    <use data-text="," xlink:href="#font_0_1" transform="matrix(9.9626,0,0,-9.9626,282.64103,29.614998)"/>
    <use data-text="n" xlink:href="#font_0_4" transform="matrix(9.9626,0,0,-9.9626,290.3919,29.614998)"/>
    <use data-text="&#x003e;" xlink:href="#font_0_2" transform="matrix(9.9626,0,0,-9.9626,299.13908,29.614998)"/>
    <use data-text="0" xlink:href="#font_1_1" transform="matrix(9.9626,0,0,-9.9626,309.652,29.614998)"/>
    <use data-text="&#xfffd;" xlink:href="#font_2_2" transform="matrix(9.9626,0,0,-9.9626,314.633,15.567997)"/>
    </svg>
